<svg width="144" height="144" viewBox="0 0 144 144" fill="none" xmlns="http://www.w3.org/2000/svg">
<path fill-rule="evenodd" clip-rule="evenodd" d="M103.768 143.501C90.7788 144.166 75.9082 144.166 70.8548 143.501C31.4353 138.315 0 109.494 0 70.5375C0 31.5807 32.2355 0 72 0C111.765 0 144 31.5807 144 70.5375C144 88.6559 137.027 105.179 125.567 117.671C122.455 121.063 126.725 123.443 131.063 125.86C135.318 128.232 139.638 130.639 137.127 134.075C134.36 137.861 119.36 142.703 103.768 143.501ZM61.875 61.7203C61.875 67.8071 56.8381 72.7417 50.625 72.7417C44.4119 72.7417 39.375 67.8071 39.375 61.7203C39.375 57.638 41.6405 54.0742 45.0068 52.1693C45.2005 57.4768 49.5644 61.72 54.9194 61.72H61.875V61.7203ZM96.7433 52.1693C96.5495 57.4768 92.1856 61.72 86.8306 61.72H79.875V61.7203C79.875 67.8071 84.9119 72.7417 91.125 72.7417C97.3381 72.7417 102.375 67.8071 102.375 61.7203C102.375 57.638 100.11 54.0742 96.7433 52.1693Z" fill="#5269AD"/>
</svg>
