<svg width="123" height="144" viewBox="0 0 123 144" fill="none" xmlns="http://www.w3.org/2000/svg">
<path fill-rule="evenodd" clip-rule="evenodd" d="M85.5557 0.140985C85.6606 -0.00856037 85.8665 -0.0449038 86.0161 0.0598089L96.2407 7.21918C96.3903 7.32389 96.4266 7.52999 96.3219 7.67953L82.091 28.0033C89.0094 30.2136 93.7229 32.5977 93.7229 32.5977C93.7229 32.5977 82.2018 52.4152 62.6608 52.4152C43.1198 52.4152 29.2342 33.9449 29.2342 33.9449C29.2342 33.9449 34.1578 30.8028 41.4562 28.1079L25.8469 9.50558C25.7296 9.36571 25.7479 9.15722 25.8877 9.03988L35.4493 1.01662C35.5894 0.899274 35.7978 0.917513 35.9151 1.05737L55.6791 24.6112C57.3713 24.4198 59.0954 24.3128 60.8352 24.3128C63.3358 24.3128 65.8333 24.5029 68.2715 24.8255L85.5557 0.140985ZM89.4218 53.3537C94.6364 49.6294 102.527 39.9088 102.527 39.9088C102.527 39.9088 122.683 55.881 122.683 89.748C122.683 123.615 87.8369 143.998 87.8369 143.998C87.8369 143.998 71.1883 127.184 67.1012 105.871C63.0143 84.5575 73.1469 60.8915 73.1469 60.8915C73.1469 60.8915 84.2068 57.078 89.4218 53.3537ZM33.2609 53.3537C28.0462 49.6294 20.1555 39.9088 20.1555 39.9088C20.1555 39.9088 0 55.881 0 89.748C0 123.615 34.8457 143.998 34.8457 143.998C34.8457 143.998 51.4943 127.184 55.5815 105.871C59.6683 84.5575 49.5357 60.8915 49.5357 60.8915C49.5357 60.8915 38.4758 57.078 33.2609 53.3537Z" fill="#91C12F"/>
</svg>
