<svg width="144" height="144" viewBox="0 0 144 144" fill="none" xmlns="http://www.w3.org/2000/svg">
<path fill-rule="evenodd" clip-rule="evenodd" d="M64.6095 127.364C67.3452 127.783 70.1471 128 73.0001 128C103.376 128 128 103.376 128 73.0001C128 42.6243 103.376 18 73.0001 18C70.9621 18 68.9498 18.1108 66.9695 18.3268C82.0375 29.7425 91.9999 49.5174 91.9999 72C91.9999 95.6363 80.9887 116.28 64.6095 127.364ZM71.9999 144C111.764 144 144 111.765 144 72C144 32.2355 111.764 0 71.9999 0C32.2354 0 0 32.2355 0 72C0 111.765 32.2354 144 71.9999 144Z" fill="#5A5465"/>
</svg>
