<svg width="129" height="139" viewBox="0 0 129 139" fill="none" xmlns="http://www.w3.org/2000/svg">
<path fill-rule="evenodd" clip-rule="evenodd" d="M20.595 120.995C20.1007 120.53 19.6119 120.056 19.1288 119.573C-6.37626 94.0682 -6.37625 52.7163 19.1288 27.2114C44.6337 1.70626 125.903 0 125.903 0C125.903 0 136.996 94.0682 111.491 119.573C88.8389 142.225 53.6877 144.759 28.2393 127.176L48.7447 102.012L81.5244 94.9347L54.7665 92.2597L71.7715 74.9454L91.1282 70.705L75.8221 66.1721L91.1282 38.5601L69.3567 62.9805L60.9493 51.1165L63.9089 70.705L48.7447 87.8L41.7154 66.1718V94.9347L20.595 120.995Z" fill="#63BC5A"/>
</svg>
