<svg width="182" height="197" viewBox="0 0 182 197" fill="none" xmlns="http://www.w3.org/2000/svg">
<path fill-rule="evenodd" clip-rule="evenodd" d="M29.1762 171.41C28.476 170.751 27.7835 170.08 27.0991 169.395C-9.03304 133.263 -9.03303 74.6814 27.0991 38.5495C63.2311 2.4172 178.362 0 178.362 0C178.362 0 194.077 133.263 157.945 169.395C125.855 201.485 76.0576 205.075 40.0057 180.165L69.055 144.517L115.493 134.491L77.586 130.701L101.676 106.173L129.098 100.165L107.415 93.7439L129.098 54.6268L98.2553 89.2224L86.3448 72.4151L90.5376 100.165L69.055 124.383L59.0969 93.7435V134.491L29.1762 171.41Z" fill="url(#paint0_linear_3410_32907)"/>
<defs>
<linearGradient id="paint0_linear_3410_32907" x1="0.193128" y1="-0.00258676" x2="105.104" y2="231.161" gradientUnits="userSpaceOnUse">
<stop stop-color="white"/>
<stop offset="1" stop-color="white" stop-opacity="0"/>
</linearGradient>
</defs>
</svg>
