<svg width="135" height="144" viewBox="0 0 135 144" fill="none" xmlns="http://www.w3.org/2000/svg">
<path fill-rule="evenodd" clip-rule="evenodd" d="M20.0344 11.9716C21.7772 5.09102 28.0105 0 35.4327 0C41.0001 0 45.8986 2.86445 48.7347 7.2H53.379C56.2643 4.23889 60.2955 2.4 64.7564 2.4C71.2966 2.4 76.9137 6.35293 79.3488 12H83.2371C85.6735 10.479 88.5524 9.59999 91.6363 9.59999C98.1768 9.59999 103.794 13.5529 106.229 19.2H116.802C116.893 19.2 116.977 19.2243 117.05 19.2668C117.533 19.2226 118.022 19.2 118.516 19.2C127.289 19.2 134.4 26.3113 134.4 35.0837V82.7117L134.4 82.8L134.4 82.8883V83.5743C134.4 83.8648 134.392 84.1542 134.376 84.4422C133.421 117.483 103.711 144 67.1999 144C30.0864 144 0 116.6 0 82.8C0 66.485 7.01013 51.6608 18.4369 40.6898C18.4084 56.5954 18.6771 73.0389 19.9155 72.7568C23.2316 72.0008 20.6407 22.7361 20.0344 11.9716Z" fill="#CE416B"/>
</svg>
