<svg width="144" height="124" viewBox="0 0 144 124" fill="none" xmlns="http://www.w3.org/2000/svg">
<path fill-rule="evenodd" clip-rule="evenodd" d="M0.0143749 62.0232C-0.00478254 61.9906 -0.00479216 61.9501 0.0143493 61.9172L36.2236 0.0518342C36.2424 0.0197436 36.277 0 36.3142 0H108.083C108.12 0 108.155 0.019913 108.174 0.0522848L143.986 61.9177C144.004 61.9501 144.004 61.9903 143.986 62.0227L108.174 123.819C108.155 123.851 108.12 123.871 108.083 123.871H36.3142C36.277 123.871 36.2424 123.851 36.2236 123.819L0.0143749 62.0232ZM105.361 61.9355C105.361 80.354 90.4297 95.2852 72.0112 95.2852C53.5927 95.2852 38.6615 80.354 38.6615 61.9355C38.6615 43.5167 53.5927 28.5857 72.0112 28.5857C90.4297 28.5857 105.361 43.5167 105.361 61.9355Z" fill="#5A8EA2"/>
</svg>
