<svg width="144" height="144" viewBox="0 0 144 144" fill="none" xmlns="http://www.w3.org/2000/svg">
<path fill-rule="evenodd" clip-rule="evenodd" d="M120.325 110.658C134.866 99.0304 144 82.2308 144 63.5484C144 28.4515 111.765 0 72 0C32.2355 0 0 28.4515 0 63.5484C0 81.5563 8.48635 97.8148 22.1218 109.378C21.2954 112.232 20.8421 115.335 20.8421 118.581C20.8421 132.619 29.3251 144 39.7896 144C46.5891 144 52.5521 139.195 55.8948 131.978C59.2374 139.195 65.2005 144 72 144C78.1982 144 83.7011 140.007 87.158 133.835C90.6148 140.007 96.1178 144 102.316 144C112.78 144 121.263 132.619 121.263 118.581C121.263 115.814 120.934 113.151 120.325 110.658ZM113.684 64.8087C113.684 82.627 94.5973 97.0718 71.0527 97.0718C47.5079 97.0718 28.4212 82.627 28.4212 64.8087C28.4212 46.9904 47.5079 32.5457 71.0527 32.5457C94.5973 32.5457 113.684 46.9904 113.684 64.8087Z" fill="#B567CE"/>
</svg>
