<svg width="108" height="144" viewBox="0 0 108 144" fill="none" xmlns="http://www.w3.org/2000/svg">
<path fill-rule="evenodd" clip-rule="evenodd" d="M81.0726 111.205C82.8518 104.699 79.3983 91.3247 79.3983 91.3247C79.3983 91.3247 76.8935 102.22 72.9796 106.247C69.6406 109.682 65.5499 112.064 59.683 112.69C64.4797 110.361 67.7785 105.503 67.7785 99.8873C67.7785 92.005 61.2782 85.615 53.2598 85.615C45.2413 85.615 38.7408 92.005 38.7408 99.8873C38.7408 102.04 39.226 104.082 40.0942 105.912C35.0789 101.917 34.2903 95.5108 34.2903 95.5108C34.2903 95.5108 28.6901 118.762 44.1211 129.699C59.5519 140.636 89.7804 131.235 89.7804 131.235C89.7804 131.235 46.5216 161.673 14.4664 128.545C-13.1465 100.008 7.25941 62.4383 7.25941 62.4383C7.25941 62.4383 6.37814 65.9236 6.37814 69.9694C6.37814 74.0152 8.57169 77.0934 8.57169 77.0934C8.57169 77.0934 15.115 63.3012 20.2073 57.6923C25.0268 52.3839 31.0683 48.0786 36.2866 44.3599C40.3034 41.4973 43.8326 38.9824 45.9403 36.6252C57.5494 23.6443 50.4313 0 50.4313 0C50.4313 0 63.5178 11.5369 67.1713 26.4369C68.564 32.1165 67.6679 38.5788 66.8669 44.3576C65.5664 53.739 64.5154 61.3195 73.9106 60.8276C89.093 60.0325 75.8999 36.6252 75.8999 36.6252C75.8999 36.6252 110.339 54.7265 107.767 86.3845C105.193 118.043 70.1224 125.24 70.1224 125.24C70.1224 125.24 79.2931 117.71 81.0726 111.205Z" fill="#FF9D55"/>
</svg>
