<svg width="145" height="114" viewBox="0 0 145 114" fill="none" xmlns="http://www.w3.org/2000/svg">
<path fill-rule="evenodd" clip-rule="evenodd" d="M111.414 53.6504C111.406 53.6392 111.402 53.6251 111.405 53.6113L120.591 0.0426933C120.596 0.0180276 120.617 0 120.642 0H123.549C123.572 0 123.592 0.0145409 123.598 0.0359159L144.296 65.5681C144.302 65.5883 144.295 65.6108 144.278 65.6241L129.018 77.5387C128.995 77.5564 128.962 77.5519 128.945 77.5285L111.414 53.6504ZM0 89.1624C0 89.1847 0.0142864 89.2043 0.0354068 89.2114L31.493 99.497C31.5082 99.502 31.525 99.4995 31.5382 99.4905L101.853 50.9468C101.865 50.9386 101.873 50.9259 101.875 50.9119L109.415 0.317362C109.42 0.286312 109.396 0.258413 109.365 0.258413H47.0829C47.0675 0.258413 47.0531 0.265219 47.0433 0.277004L0.0118198 57.0133C0.00417937 57.0226 0 57.0341 0 57.0462V89.1624ZM44.6015 102.118L78.9682 113.375C78.9837 113.38 79.0009 113.378 79.0141 113.368L119.93 84.0189C119.953 84.0029 119.958 83.9717 119.943 83.9486L104.605 61.1238C104.589 61.0999 104.557 61.0937 104.533 61.11L44.6015 102.118Z" fill="#C5B78C"/>
</svg>
