<svg width="144" height="105" viewBox="0 0 144 105" fill="none" xmlns="http://www.w3.org/2000/svg">
<path fill-rule="evenodd" clip-rule="evenodd" d="M31.7149 103.993C31.6758 103.993 31.6485 103.955 31.6614 103.918L68.425 0.0376883C68.4332 0.0151039 68.4546 0 68.4785 0H107.725C107.749 0 107.77 0.0152165 107.778 0.0379415L143.996 103.918C144.009 103.955 143.982 103.993 143.943 103.993H32.8196H31.7149ZM0.0566173 104.4C0.0171316 104.4 -0.0102052 104.36 0.00364521 104.324L27.3804 31.2345C27.3887 31.2123 27.4098 31.1977 27.4334 31.1977H51.2207C51.2601 31.1977 51.2873 31.2368 51.2738 31.2736L24.8013 104.363C24.7932 104.385 24.7719 104.4 24.7481 104.4H0.0566173Z" fill="#D97845"/>
</svg>
